<?xml version="1.0" standalone="no"?>
<!DOCTYPE svg PUBLIC "-//W3C//DTD SVG 20010904//EN"
 "http://www.w3.org/TR/2001/REC-SVG-20010904/DTD/svg10.dtd">
<svg version="1.0" xmlns="http://www.w3.org/2000/svg"
 width="980.000000pt" height="980.000000pt" viewBox="0 0 980.000000 980.000000"
 preserveAspectRatio="xMidYMid meet">

<g transform="translate(0.000000,980.000000) scale(0.100000,-0.100000)"
fill="#000000" stroke="none">
<path d="M4560 9789 c-1066 -77 -2053 -486 -2870 -1188 -149 -129 -429 -414
-556 -566 -561 -678 -925 -1472 -1068 -2335 -49 -296 -60 -439 -60 -800 0
-361 11 -504 60 -800 127 -764 430 -1484 888 -2104 145 -198 275 -347 485
-557 272 -272 495 -455 782 -642 1644 -1072 3771 -1060 5399 29 457 305 889
716 1215 1154 953 1283 1219 2956 711 4474 -196 586 -490 1111 -897 1601 -115
139 -470 492 -614 611 -763 629 -1649 1002 -2635 1109 -174 19 -664 27 -840
14z m706 -159 c619 -49 1181 -204 1739 -480 1248 -617 2162 -1749 2499 -3098
320 -1281 90 -2645 -631 -3747 -406 -619 -970 -1153 -1608 -1520 -461 -266
-1029 -471 -1545 -559 -317 -54 -409 -61 -815 -61 -398 0 -509 8 -790 55
-1272 215 -2393 932 -3137 2010 -355 515 -627 1174 -742 1800 -87 476 -102
1006 -40 1485 102 798 422 1586 903 2225 241 320 552 638 873 892 724 575
1670 940 2593 1001 123 8 584 6 701 -3z"/>
</g>
</svg>
